<svg id="Layer_1" data-name="Layer 1" xmlns="http://www.w3.org/2000/svg" viewBox="0 0 607.53 105.96"><defs><style>.cls-1{fill:#ceb4f5;}.cls-2{fill:#9f8ef4;}.cls-3{fill:#7166f3;}.cls-4{fill:#f5f5f5;}</style></defs><rect class="cls-1" width="30.53" height="30.53" rx="15.26" transform="translate(-6.32 15.26) rotate(-45)"/><path class="cls-2" d="M26.05,42.19a15.26,15.26,0,0,0-21.58,0h0a15.26,15.26,0,0,0,0,21.58h0a15.26,15.26,0,0,0,21.58,0h0a15.24,15.24,0,0,0,0-21.58Z"/><rect class="cls-3" y="75.43" width="30.53" height="30.53" rx="15.26" transform="translate(-59.66 37.36) rotate(-45)"/><rect class="cls-2" x="36.37" width="30.53" height="30.53" rx="15.26" transform="translate(4.33 40.98) rotate(-45)"/><path class="cls-3" d="M98.8,4.47h0a15.27,15.27,0,0,0-21.59,0h0a15.26,15.26,0,0,0,0,21.58h0a15.25,15.25,0,0,0,21.59,0h0A15.26,15.26,0,0,0,98.8,4.47Z"/><path class="cls-2" d="M42.26,71.27V44.8a1.19,1.19,0,0,1,1.19-1.19H69.92a1.19,1.19,0,0,1,.84,2L44.29,72.11A1.19,1.19,0,0,1,42.26,71.27Z"/><polygon class="cls-4" points="114.45 91.88 130.9 91.88 134.34 67.21 157 67.21 159.2 51.72 136.54 51.72 137.97 41.4 164.27 41.4 166.47 25.91 123.73 25.91 114.45 91.88"/><path class="cls-4" d="M189.89,23H174.4L167,76c-1.53,10.52,3.63,15.87,15.49,15.87h5.35l2-14.15h-3.06c-3,0-4.4-1.53-3.92-4.3Z"/><path class="cls-4" d="M224.22,42c-15.11,0-28,11-30,25.53S201.84,93,217,93s28-11,30-25.53S239.23,42,224.22,42ZM231,67.5A12.06,12.06,0,0,1,219.05,78c-6,0-9.75-4.5-9-10.52A12.14,12.14,0,0,1,222,57C228,57,231.77,61.48,231,67.5Z"/><path class="cls-4" d="M310.67,42.6c2.37,5.59.27,11.32-2.79,19l-4.21,9.95-4.21-28.4H283.69l-12.14,28.3-3.73-28.3H250.13l10.13,48.76h15.88l12.52-29.64,4.11,29.64h15.87l13.2-27c4.49-9.28,7.26-16.16,4.8-22.32Z"/><path class="cls-2" d="M389,41.12H381.1l-1.2,8.48c-4.07-6.06-11-9.63-19.24-9.63C345.32,40,332.14,51.69,330,67.23c-1.08,7.79.81,14.94,5.32,20.11,4.32,5,10.74,7.69,18.08,7.69a30,30,0,0,0,21.7-9.52,8.67,8.67,0,0,0,2,5.4c1.69,1.94,4.3,3,7.56,3h3.29l1-7.73h-3a3.09,3.09,0,0,1-2.31-.79,3.29,3.29,0,0,1-.49-2.57ZM354.54,87.3a16.75,16.75,0,0,1-12.91-5.4c-3.12-3.59-4.43-8.61-3.66-14.13A23.21,23.21,0,0,1,360.75,47.7c5.34,0,10,1.92,13,5.42s4.42,8.59,3.66,14.1A23.28,23.28,0,0,1,354.54,87.3Z"/><path class="cls-2" d="M425.39,47.7c8.23,0,14.56,4.74,16.51,12.36l.39,1.5h7.94l-.41-2.34c-2-11.69-11.44-19.25-24-19.25a31.67,31.67,0,0,0-31.23,27.26c-1.06,7.68.83,14.75,5.32,19.91S411,95,418.6,95a31.49,31.49,0,0,0,28.79-18.79l1.23-2.8h-8.29l-.56,1.07a23.35,23.35,0,0,1-20.6,12.79c-5.34,0-10-1.93-13-5.42s-4.42-8.59-3.65-14.11A23.26,23.26,0,0,1,425.39,47.7Z"/><path class="cls-2" d="M485.24,40A31.69,31.69,0,0,0,454,67.23c-1.06,7.68.83,14.75,5.32,19.91S470.38,95,478,95A31.73,31.73,0,0,0,509.3,67.77c1.06-7.65-.83-14.7-5.33-19.86S492.86,40,485.24,40ZM478.55,87.3c-5.35,0-10-1.93-13-5.42s-4.42-8.59-3.66-14.11A23.27,23.27,0,0,1,484.76,47.7c5.29,0,9.87,1.92,12.9,5.4s4.43,8.6,3.67,14.12A23.21,23.21,0,0,1,478.55,87.3Z"/><path class="cls-2" d="M548.26,48.37l1.14-8h-2.3a25.93,25.93,0,0,0-18.41,7.37l.91-6.6h-7.85L514.3,93.88h7.86l4.25-29.75c2.2-9.72,9.9-15.76,20.12-15.76Z"/><path class="cls-2" d="M599.38,85.36a3.33,3.33,0,0,1-.49-2.57L607.53,21h-7.86l-4,28.49c-4.07-6-11-9.56-19.23-9.56-15.33,0-28.52,11.72-30.66,27.26-1.08,7.79.81,14.94,5.31,20.11,4.32,5,10.75,7.69,18.09,7.69a30.05,30.05,0,0,0,21.69-9.47,8.68,8.68,0,0,0,2,5.35c1.69,1.94,4.3,3,7.56,3h3.29l1-7.73h-3A3.09,3.09,0,0,1,599.38,85.36Zm-29,1.94c-5.29,0-9.87-1.92-12.9-5.4s-4.43-8.61-3.67-14.13A23.22,23.22,0,0,1,576.55,47.7c5.34,0,10,1.92,13,5.42s4.42,8.59,3.66,14.1A23.26,23.26,0,0,1,570.33,87.3Z"/></svg>